<svg xmlns="http://www.w3.org/2000/svg" width="14" height="14" viewBox="0 0 14 14"><defs><style>.a{fill:#616161;}</style></defs><path class="a" d="M12.491,0H1.508A1.51,1.51,0,0,0,0,1.508V12.491A1.51,1.51,0,0,0,1.508,14H12.491A1.51,1.51,0,0,0,14,12.491V1.508A1.51,1.51,0,0,0,12.491,0Zm.688,12.491a.689.689,0,0,1-.688.688H1.508a.689.689,0,0,1-.688-.688V1.508A.689.689,0,0,1,1.508.82H12.491a.689.689,0,0,1,.688.688Zm0,0"/><path class="a" d="M139.327,197.4a.493.493,0,0,1,.558.531c.005.166.161.22.349.22.231,0,.349-.064.349-.333,0-.644-.542-1.03-1.283-1.03a1.113,1.113,0,0,0-1.234,1.229v1.5a1.259,1.259,0,0,0,2.517,0v-.639a.215.215,0,0,0-.22-.225h-.912c-.139,0-.215.14-.215.274s.075.274.215.274h.435v.317c0,.419-.215.617-.563.617s-.558-.2-.558-.617v-1.5C138.764,197.6,138.968,197.4,139.327,197.4Zm0,0" transform="translate(-134.435 -191.766)"/><path class="a" d="M246.384,196.793c-.177,0-.349.064-.349.215V200.5c0,.145.172.22.349.22s.349-.075.349-.22v-3.488C246.733,196.857,246.556,196.793,246.384,196.793Zm0,0" transform="translate(-239.371 -191.767)"/><path class="a" d="M304.448,196.793h-1.873c-.155,0-.306.075-.306.22V200.5c0,.145.172.22.349.22s.349-.075.349-.22v-1.47h.821c.15,0,.215-.145.215-.268,0-.145-.075-.279-.215-.279h-.821V197.4h1.481c.139,0,.215-.145.215-.311C304.663,196.948,304.6,196.793,304.448,196.793Zm0,0" transform="translate(-294.302 -191.766)"/></svg>