<?xml version="1.0" encoding="utf-8"?>
<!-- Svg Vector Icons : http://www.onlinewebfonts.com/icon -->
<!DOCTYPE svg PUBLIC "-//W3C//DTD SVG 1.1//EN" "http://www.w3.org/Graphics/SVG/1.1/DTD/svg11.dtd">
<svg version="1.1" xmlns="http://www.w3.org/2000/svg" xmlns:xlink="http://www.w3.org/1999/xlink" x="0px" y="0px" fill="#616161" viewBox="0 0 1000 1000" enable-background="new 0 0 1000 1000" xml:space="preserve">
<metadata> Svg Vector Icons : http://www.onlinewebfonts.com/icon </metadata>
<g><g transform="translate(0.000000,511.000000) scale(0.100000,-0.100000)"><path d="M3591.5,4995.3c-222.9-45-617.7-282.3-1043.2-627.9c-276.1-225-924.5-873.4-1149.5-1149.5c-362-445.9-587-824.3-630-1065.7c-14.3-77.7-18.4-1075.9-14.3-2986.3c4.1-2697.9,8.2-2879.9,43-2994.5c106.4-353.8,374.3-675,687.3-824.3c306.8-145.2,135-137,2873.8-137c2337.9,0,2483.1,2,2607.9,36.8c439.8,124.8,816.1,499.1,928.6,924.5c18.4,67.5,38.8,245.4,47,394.8l12.3,270h-327.3h-329.3l-8.2-259.8c-6.1-225-14.3-274.1-55.2-353.9c-63.4-124.8-175.9-237.2-298.6-302.7l-102.3-55.2l-2462.7-6.1l-2462.7-4.1l-114.5,51.1c-141.1,65.5-253.6,171.8-325.2,306.8l-55.2,102.3L1407-809.6l-4.1,2877.9l597.3,10.2c666.8,10.2,732.3,20.5,987.9,153.4c194.3,100.2,445.9,351.8,546.1,546.1c133,255.7,143.2,321.1,153.4,987.9l10.2,597.3l1568.8-4.1l1566.8-6.1l102.3-55.2c135-71.6,241.4-184.1,304.8-323.2l53.2-112.5v-1712v-1714h327.3h329.3l-8.2,1744.7c-6.1,1937,2,1812.2-149.3,2121.1c-100.2,202.5-345.7,450-550.2,556.4c-296.6,153.4-204.6,147.3-1973.8,151.4C4389.2,5011.7,3642.6,5005.5,3591.5,4995.3z"/><path d="M3204.9,76.1c-143.2-38.8-227-90-327.3-204.5c-153.4-175.9-155.5-184.1-155.5-1235.4c0-1090.2-2.1-1073.8,192.3-1270.2c210.7-208.6-65.4-192.3,3070.1-192.3c3135.6,0,2859.5-16.4,3070.1,192.3c194.3,196.4,192.3,180,192.3,1270.2S9249-290,9054.7-93.7C8844.1,117,9128.4,98.6,6025.5,102.7C3699.9,106.8,3299,102.7,3204.9,76.1z M5287.1-576.4c139.1-63.4,251.6-171.8,310.9-304.8c59.3-133,55.2-143.2-94.1-180l-130.9-30.7l-20.4,59.3c-73.7,212.7-294.6,312.9-578.9,261.8c-296.6-53.2-445.9-239.3-445.9-554.3c0-243.4,94.1-411.1,282.3-503.2c102.3-51.1,139.1-57.3,300.7-55.2c182,2.1,308.9,32.7,413.2,102.3c38.9,24.5,47,47,47,141.1v112.5h-255.7h-255.7v122.7v122.7h398.9h398.9V-1595v-313l-126.8-75.7c-200.4-118.6-378.4-165.7-619.8-165.7c-351.8,2.1-607.5,122.7-765,357.9c-100.2,151.4-132.9,288.4-120.7,521.6c18.4,376.4,222.9,630,589.1,730.2C4816.7-486.4,5119.4-502.8,5287.1-576.4z M6311.9-1363.9V-2182h-153.4H6005v818.2v818.2h153.4h153.4V-1363.9z M7948.2-678.7v-132.9h-511.3h-511.4v-194.3v-194.3h460.2h460.2v-132.9v-133h-460.2h-460.2v-357.9V-2182h-143.2h-143.2v818.2v818.2h654.5h654.5V-678.7z"/></g></g>
</svg>