
  <svg
    xmlns="http://www.w3.org/2000/svg"
    width="64.738"
    height="52.125"
    viewBox="0 0 64.738 52.125"
  >
    <defs>
      <style>
        .a {
          fill: #3f3d56;
        }
        .b {
          fill: #e5e1e1;
        }
        .c {
          opacity: 0.1;
        }
        .d {
          fill: #a8996f;
        }
        .e {
          fill: #2f2e41;
        }
        .f {
          fill: #a0616a;
        }
        .g {
          fill: #fff;
        }
        .h {
          fill: #d0cde1;
        }
        .i {
          fill: #6c63ff;
        }
        .j {
          fill: #fbbebe;
        }
        .k {
          fill: #b3b3b3;
        }
        .l {
          opacity: 0.2;
        }
        .m {
          fill: #e6e6e6;
        }
      </style>
    </defs>
    <path
      class="a"
      d="M630.082,123.022a7.006,7.006,0,0,1-6.289.791l-1.608-.682,3.223-3.612a15.391,15.391,0,1,1,4.674,3.5Zm-6.174-13.867a12.79,12.79,0,0,0,4.072,9.41l.889.835-2.028,2.273a6.771,6.771,0,0,0,2.443-1.118l.64-.455.688.378a12.913,12.913,0,1,0-6.7-11.324Z"
      transform="translate(-587.462 -93.788)"
    />
    <path
      class="b"
      d="M638.315,124.374a14.158,14.158,0,1,1,7.353,12.421c-.979.7-3.367,2.086-5.727,1.085l2.84-3.184A14.123,14.123,0,0,1,638.315,124.374Z"
      transform="translate(-603.122 -109.008)"
    />
    <path
      class="c"
      d="M828.667,124.792a14.164,14.164,0,0,0-12.911-14.108c.412-.036.83-.056,1.252-.056a14.163,14.163,0,0,1,0,28.326c-.421,0-.838-.02-1.25-.056A14.164,14.164,0,0,0,828.667,124.792Z"
      transform="translate(-767.56 -109.395)"
    />
    <path
      class="a"
      d="M190.928,370.918a15.431,15.431,0,1,1,11.411-5.051l3.223,3.612-1.608.682a7.006,7.006,0,0,1-6.289-.791A15.452,15.452,0,0,1,190.928,370.918Zm0-28.326a12.911,12.911,0,1,0,6.208,24.234l.687-.378.64.455a6.77,6.77,0,0,0,2.443,1.118l-2.028-2.273.889-.835a12.79,12.79,0,0,0,4.072-9.41A12.926,12.926,0,0,0,190.928,342.591Z"
      transform="translate(-174.209 -322.136)"
    />
    <path
      class="d"
      d="M221.241,371.765a14.158,14.158,0,1,0-7.353,12.421c.979.7,3.367,2.086,5.727,1.085l-2.84-3.184A14.123,14.123,0,0,0,221.241,371.765Z"
      transform="translate(-190.359 -338.398)"
    />
    <path
      class="c"
      d="M195.418,370.789a14.164,14.164,0,0,1,12.911-14.107c-.413-.036-.83-.056-1.252-.056a14.163,14.163,0,1,0,0,28.326c.421,0,.838-.02,1.25-.056A14.164,14.164,0,0,1,195.418,370.789Z"
      transform="translate(-190.359 -337.494)"
    />
    <path
      class="e"
      d="M786.54,221.288a3.6,3.6,0,0,0-2.76-1.639s-1.786-.228-2.932,2.156c-1.068,2.223-2.542,4.369-.237,4.889l.416-1.3.258,1.392a9.015,9.015,0,0,0,.986.017c2.469-.08,4.82.023,4.744-.863C786.914,224.768,787.432,222.795,786.54,221.288Z"
      transform="translate(-733.859 -210.447)"
    />
    <path
      class="e"
      d="M789.516,418.815a3.663,3.663,0,0,1-.118.509c-.058.163-.148.314-.2.479a1.6,1.6,0,0,0,.44,1.516,2.473,2.473,0,0,0,1.206.716,4.922,4.922,0,0,0,1.036.109,8.043,8.043,0,0,0,2.864-.248,4.986,4.986,0,0,0,.832-.378.624.624,0,0,0,.216-.17.6.6,0,0,0,.078-.349c0-.408-.085-.815-.065-1.223a4.858,4.858,0,0,0,.032-.677,1.249,1.249,0,0,0-.954-1.076,2.591,2.591,0,0,0-.791,0,20.175,20.175,0,0,1-2.059.092c-.7,0-1.4-.112-2.1-.123-.207,0-.2.06-.268.26A4.861,4.861,0,0,0,789.516,418.815Z"
      transform="translate(-742.896 -394.298)"
    />
    <path
      class="f"
      d="M810.84,280.96a1.227,1.227,0,0,1-.176.505c-.122.167-.321.263-.453.422a1.381,1.381,0,0,0-.21.891,1.1,1.1,0,0,0,.582,1.2,3.814,3.814,0,0,0,1.973.83,1.049,1.049,0,0,0,.819-.3,1.231,1.231,0,0,0,.2-.354,4.694,4.694,0,0,0,.332-1.43,1.679,1.679,0,0,0-.063-.687,6.346,6.346,0,0,0-.383-.679,1.512,1.512,0,0,1-.146-.895.1.1,0,0,0-.005-.065.1.1,0,0,0-.078-.032l-1.435-.1a3.127,3.127,0,0,1-.4-.046c-.077-.016-.282-.126-.355-.1C810.9,280.178,810.868,280.814,810.84,280.96Z"
      transform="translate(-762.226 -266.502)"
    />
    <path
      class="c"
      d="M810.84,281.572a1.227,1.227,0,0,1-.176.505c-.122.167-.321.263-.453.422a1.381,1.381,0,0,0-.21.891,1.1,1.1,0,0,0,.582,1.2,3.814,3.814,0,0,0,1.973.83,1.049,1.049,0,0,0,.819-.3,1.231,1.231,0,0,0,.2-.354,4.7,4.7,0,0,0,.332-1.43,1.679,1.679,0,0,0-.063-.687,6.352,6.352,0,0,0-.383-.679,1.512,1.512,0,0,1-.146-.895.1.1,0,0,0-.005-.065.1.1,0,0,0-.078-.032l-1.435-.1a3.127,3.127,0,0,1-.4-.046c-.077-.016-.282-.126-.355-.1C810.9,280.789,810.868,281.425,810.84,281.572Z"
      transform="translate(-762.226 -267.068)"
    />
    <circle
      class="f"
      cx="2.106"
      cy="2.106"
      r="2.106"
      transform="translate(47.88 10.449)"
    />
    <path
      class="g"
      d="M815.864,312.079a1.293,1.293,0,0,0,.37.3,1.162,1.162,0,0,0,.462.088,1.393,1.393,0,0,0,1.055-.332c.34-.352.329-.919.6-1.329a.3.3,0,0,1,.086-.094.279.279,0,0,1,.146-.034,1.515,1.515,0,0,1,.9.424,1.179,1.179,0,0,1,.315.321,1.089,1.089,0,0,1,.106.325,14.312,14.312,0,0,1,.216,1.951c.023.361.047.722.045,1.084a15.683,15.683,0,0,1-.558,3.524.551.551,0,0,1-.22.388.543.543,0,0,1-.192.047,23.478,23.478,0,0,1-2.374.2q-.465.007-.93-.023a.5.5,0,0,1-.157-.027.441.441,0,0,1-.171-.145,3.111,3.111,0,0,1-.452-1.981q.01-2.535.181-5.066a.557.557,0,0,0-.089-.418A5.234,5.234,0,0,0,815.864,312.079Z"
      transform="translate(-766.955 -294.827)"
    />
    <path
      class="g"
      d="M778.3,294.3a7.331,7.331,0,0,1-.7.555c-.566.6-1.6.574-2.115,1.212a1.988,1.988,0,0,0-.346.787,1.884,1.884,0,0,0,.014,1.2,5.971,5.971,0,0,0,.719.931,3.585,3.585,0,0,1,.468,1.2,2.761,2.761,0,0,1,.128.943,5.693,5.693,0,0,1-.313,1.039,1.1,1.1,0,0,0,.118,1.035,1.18,1.18,0,0,0,.713.325,8.182,8.182,0,0,0,1.016.088,1.237,1.237,0,0,0,.862-.177.867.867,0,0,0,.272-.635,4.11,4.11,0,0,0-.07-.707c-.032-.244-.044-.49-.055-.735q-.069-1.653-.019-3.308a2.814,2.814,0,0,0-.033-.686,3.769,3.769,0,0,0-.357-.83,3.141,3.141,0,0,1-.348-1.66C778.293,294.289,778.551,293.839,778.3,294.3Z"
      transform="translate(-729.835 -279.474)"
    />
    <path
      class="g"
      d="M850.547,291.744c.108.111.476.148.614.22a2.151,2.151,0,0,0,.4.14,5.24,5.24,0,0,1,1.418.651.861.861,0,0,1,.237.2.939.939,0,0,1,.131.371,3.153,3.153,0,0,1-.113,2.07l-.4,1.291a13.839,13.839,0,0,0-.689,2.942,6.921,6.921,0,0,0,.062,1.671.2.2,0,0,1-.02.162.159.159,0,0,1-.1.045.969.969,0,0,1-.56-.157,6.2,6.2,0,0,0-1.709-.559,3.97,3.97,0,0,0,.531-1.094,6.624,6.624,0,0,0,.161-.753l.188-1.086a10.708,10.708,0,0,0,.161-1.2,1.506,1.506,0,0,0-.026-.453,2.2,2.2,0,0,0-.172-.408,3.486,3.486,0,0,1-.333-2.082,3.04,3.04,0,0,0,.114-.926,6.512,6.512,0,0,0-.075-.824C850.055,290.759,850.344,291.535,850.547,291.744Z"
      transform="translate(-799.128 -276.876)"
    />
    <path
      class="g"
      d="M774.618,323.82a4.923,4.923,0,0,0-.457.857,1.882,1.882,0,0,0-.04.448,2.129,2.129,0,0,0,.066.674c.045.139.118.267.17.4a1.461,1.461,0,0,1,.1.6c-.014.282-.11.556-.117.838a2.712,2.712,0,0,0,.394,1.258.924.924,0,0,1,1.344-.44.276.276,0,0,0,.061-.2q.022-.773.043-1.545a9.244,9.244,0,0,0-.141-2.379,2.244,2.244,0,0,0-.447-.971c-.124-.143-.546-.52-.75-.359-.092.072-.07.268-.085.367A1.56,1.56,0,0,1,774.618,323.82Z"
      transform="translate(-728.972 -306.214)"
    />
    <path
      class="g"
      d="M869.222,313.7a2.154,2.154,0,0,1,.072.648q0,.668-.018,1.336a2.49,2.49,0,0,1-.087.676c-.046.143-.116.278-.163.42a3.942,3.942,0,0,0-.052,1.343,1.526,1.526,0,0,1-.037.434,3.58,3.58,0,0,1-.414.758,7.421,7.421,0,0,1-.371.734.7.7,0,0,1-.7.333.771.771,0,0,1-.443-.413,2.027,2.027,0,0,1-.21-1.315c.1-.547.421-1.032.536-1.575a11.5,11.5,0,0,0-.075-2.279,1.1,1.1,0,0,1,.048-.353,1.478,1.478,0,0,1,.312-.453,5.715,5.715,0,0,0,.419-.55c.086-.129.2-.46.356-.487C868.739,312.891,869.137,313.433,869.222,313.7Z"
      transform="translate(-814.836 -296.934)"
    />
    <path
      class="e"
      d="M732.217,423.9a2.079,2.079,0,0,0-.578-.061,1.443,1.443,0,0,0-1.34,1.7,2.427,2.427,0,0,0,.229.626,2.091,2.091,0,0,0,.621.821,2.421,2.421,0,0,0,.548.261l1.495.563c.22.083.44.166.662.243a12.949,12.949,0,0,0,3.458.687,3.745,3.745,0,0,0,1.074-.054.35.35,0,0,0,.22-.119.377.377,0,0,0,.049-.162l.092-.644a.539.539,0,0,0-.008-.271.52.52,0,0,0-.248-.234,14.788,14.788,0,0,1-2.958-1.651c-.195-.182-.358-.471-.594-.6-.268-.14-.584-.221-.862-.35A9.546,9.546,0,0,0,732.217,423.9Z"
      transform="translate(-688.344 -399.714)"
    />
    <path
      class="c"
      d="M768.671,434.666a15.513,15.513,0,0,1,3.142,1.713c-.051.018-1.79-.956-1.842-.972a10.508,10.508,0,0,1-1.4-.494c-.091-.042-.589-.239-.566-.353S768.578,434.637,768.671,434.666Z"
      transform="translate(-723.306 -409.614)"
    />
    <path
      class="f"
      d="M839.7,478.018a.124.124,0,0,0,.084-.025.129.129,0,0,0,.026-.1l0-.877a2.7,2.7,0,0,0-.812-.2l-1.292-.173c.03,0-.2.557-.167.63.063.13.541.245.677.307A3.383,3.383,0,0,0,839.7,478.018Z"
      transform="translate(-787.738 -448.666)"
    />
    <path
      class="f"
      d="M801.687,473.67a1.047,1.047,0,0,0-.674.263.96.96,0,0,0-.02.9.292.292,0,0,0,.34.243,1.175,1.175,0,0,0,.654-.084,2.854,2.854,0,0,0,.254-.189,1.63,1.63,0,0,1,.467-.213,4.719,4.719,0,0,1,.937-.193,1.46,1.46,0,0,0,.369-.065.409.409,0,0,0,.26-.253.6.6,0,0,0-.136-.462,1.844,1.844,0,0,0-.393-.486c-.241-.187-.36-.043-.6.076A5.113,5.113,0,0,1,801.687,473.67Z"
      transform="translate(-753.784 -445.32)"
    />
    <path
      class="e"
      d="M765.765,477.426l-1.549-.458a2.052,2.052,0,0,0-.577-.112.692.692,0,0,0-.529.214,1.031,1.031,0,0,0-.185.517l-.064.391a1.963,1.963,0,0,0-.036.6.664.664,0,0,0,.308.495,1.06,1.06,0,0,0,.717.011,7.8,7.8,0,0,1,1.468-.157,1.178,1.178,0,0,0,.544-.087.679.679,0,0,0,.331-.541C766.224,477.965,766.112,477.528,765.765,477.426Z"
      transform="translate(-718.5 -448.857)"
    />
    <path
      class="e"
      d="M867.1,475.236a3.76,3.76,0,0,0,.571-.217,2.538,2.538,0,0,1,.852-.094.412.412,0,0,1,.486.464l.13.907a1.422,1.422,0,0,1,.011.514.483.483,0,0,1-.319.374.951.951,0,0,1-.593-.162,14.408,14.408,0,0,0-1.532-.317.343.343,0,0,1-.229-.164.374.374,0,0,1-.018-.157,3.949,3.949,0,0,1,.035-.968C866.575,475.166,866.88,475.236,867.1,475.236Z"
      transform="translate(-814.538 -447.066)"
    />
    <path
      class="e"
      d="M838.479,418.684a2.691,2.691,0,0,1,.948-.065,1,1,0,0,1,1,1.128,2.668,2.668,0,0,1-.58,1.7,1.543,1.543,0,0,1-.332.319,2.18,2.18,0,0,1-.431.208l-3.348,1.32a21.638,21.638,0,0,1-2.683.925.209.209,0,0,1-.281-.1,6.932,6.932,0,0,1-.734-1.342.091.091,0,0,1,.04-.143l2.368-1.361a2.393,2.393,0,0,0,.482-.332,1.2,1.2,0,0,0,.248-.344c.049-.1.054-.344.116-.42s.271-.08.368-.109a3.332,3.332,0,0,0,.4-.152c.53-.237,1-.581,1.509-.859A3.873,3.873,0,0,1,838.479,418.684Z"
      transform="translate(-782.633 -394.867)"
    />
    <path
      class="c"
      d="M853.77,430.293c-.407.306-.934.586-1.337.9a25.693,25.693,0,0,0-2.464,1.568c.376.063,2.772-1.613,3.115-1.78a5.537,5.537,0,0,0,.948-.637c.077-.06.4-.239.182-.306C854.09,430,853.861,430.232,853.77,430.293Z"
      transform="translate(-799.266 -405.458)"
    />
    <path
      class="h"
      d="M811.064,297.693h-3.571a.547.547,0,0,0-.547.547v.2h-.039v.448h.039v.314h-.039v.269h.039v3.306a.547.547,0,0,0,.547.547h3.571a.547.547,0,0,0,.547-.547V298.24a.547.547,0,0,0-.547-.547Z"
      transform="translate(-759.36 -282.792)"
    />
    <path
      class="e"
      d="M652.262,134.9l-1.811-.949-2.5.388-.518,2.286,1.288-.05.36-.84v.826l.594-.023.345-1.337.216,1.423,2.113-.043Z"
      transform="translate(-599.99 -124.211)"
    />
    <path
      class="f"
      d="M782.878,341.952a.942.942,0,0,0,.338.336.661.661,0,0,0,.581-.016,1.023,1.023,0,0,0,.419-.421,2.093,2.093,0,0,0,.213-1.162c-.025-.4-.11-.791-.147-1.189-.027-.289-.03-.58-.032-.87a.289.289,0,0,1,.036-.176.346.346,0,0,1,.194-.1,1.562,1.562,0,0,0,.85-.859,1.489,1.489,0,0,0,.212-.791.621.621,0,0,0-.5-.581.8.8,0,0,0-.6.28,2.574,2.574,0,0,0-.754,1.506,5.82,5.82,0,0,1-.1.84c-.163.581-.672.937-.926,1.46A1.761,1.761,0,0,0,782.878,341.952Z"
      transform="translate(-736.758 -318.415)"
    />
    <path
      class="f"
      d="M859.732,317.821a1.1,1.1,0,0,1-.616.592.85.85,0,0,1-.535.033.594.594,0,0,1-.392-.351.947.947,0,0,1-.044-.263,2.714,2.714,0,0,1,.127-1.161c.055-.141.129-.275.172-.42a2.105,2.105,0,0,0,.065-.513l.047-1.069a.692.692,0,0,0-.016-.232.732.732,0,0,0-.324-.347,2.13,2.13,0,0,1-.792-.841.59.59,0,0,1-.055-.348.579.579,0,0,1,.47-.4,1.051,1.051,0,0,1,1.26.847c.021.121.021.244.033.366.026.258.108.508.159.762.126.627.061,1.276.186,1.9C859.581,316.905,859.975,317.247,859.732,317.821Z"
      transform="translate(-806.117 -296.499)"
    />
    <circle
      class="i"
      cx="0.448"
      cy="0.448"
      r="0.448"
      transform="translate(49.518 16.41)"
    />
    <circle
      class="e"
      cx="1.322"
      cy="1.322"
      r="1.322"
      transform="translate(0 30.279)"
    />
    <path
      class="j"
      d="M58.088,478.327l-.666-.647-1.337.415.128,1.548,2.748-.128-.844-1.147Z"
      transform="translate(-51.976 -442.814)"
    />
    <circle
      class="j"
      cx="2.137"
      cy="2.137"
      r="2.137"
      transform="translate(2.52 31.232)"
    />
    <path
      class="e"
      d="M387.678,617.061s2.625,4.511,3.25,5.188a11.346,11.346,0,0,0,.948.945s-.294.974-.761.939a2.2,2.2,0,0,1-.772-.19,1.872,1.872,0,0,0-.573-.779c-.364-.237-3.339-3.164-3.27-4.1A4.118,4.118,0,0,1,387.678,617.061Z"
      transform="translate(-369.758 -578.845)"
    />
    <path
      class="e"
      d="M275.023,668.284a6.174,6.174,0,0,0,6.6.131l.328-.241a12.911,12.911,0,0,0-.6,1.582,12.153,12.153,0,0,1-1.735,2.792.61.61,0,0,0-.287.211l1,1.1.369-.271a28.754,28.754,0,0,1,1.858-2.41,43.818,43.818,0,0,0,2.424-4.216s.766-1.448-1.146-1.557a5.274,5.274,0,0,0-2.792.412l-3.393.539Z"
      transform="translate(-266.451 -623.631)"
    />
    <path
      class="e"
      d="M434.826,697.841l1.416.979s1.806.566.693.942-4.044.513-4.11-.007.116-1.337.262-1.293A1.511,1.511,0,0,0,434.826,697.841Z"
      transform="translate(-412.676 -653.706)"
    />
    <path
      class="e"
      d="M324.013,763.917l.262,1.439s.745,1.425-.149.983-2.737-2.121-2.465-2.473.873-.734.934-.619A1.284,1.284,0,0,0,324.013,763.917Z"
      transform="translate(-309.645 -714.299)"
    />
    <path
      class="g"
      d="M210.522,581.887s-1.9,2.221-3.057,1.682-5.88-6.789-5.341-7.944.721-.909.721-.909l2.44.226-.7-1.125a.475.475,0,0,1,.64.1,6.937,6.937,0,0,1,2,2.379,1.8,1.8,0,0,0,1.719,1.135Z"
      transform="translate(-198.854 -538.691)"
    />
    <path
      class="a"
      d="M185.016,464.783l-3.3,3.5-2.954-5.216,2.808-3.393Z"
      transform="translate(-165.665 -426.137)"
    />
    <path
      class="g"
      d="M188.884,468.412l-2.979,3.076-2.7-4.74,2.475-3.116Z"
      transform="translate(-169.781 -429.804)"
    />
    <path
      class="k"
      d="M158.737,575.336l.162.134-.1.2-4.611,1.372-.044-.158.21-.217Z"
      transform="translate(-142.845 -533.353)"
    />
    <path
      class="h"
      d="M122.433,511.167l-4.775,1.493-2.911-5.5,4.691-1.178Z"
      transform="translate(-106.339 -469.056)"
    />
    <path
      class="a"
      d="M183.386,517.157l-.2.151-2.274-3.948.235-.11Z"
      transform="translate(-167.651 -475.789)"
    />
    <path
      class="a"
      d="M153.77,520.017l-2.02.6-2.293-4.06,2-.46Z"
      transform="translate(-138.505 -478.43)"
    />
    <path
      class="j"
      d="M285.446,619.5l.418-.118s2.332-.264,2.366.469-2.68.393-2.68.393l-.362-.492Z"
      transform="translate(-275.872 -580.922)"
    />
    <path
      class="j"
      d="M310.02,645.054l.582-.239s1.757-.788,1.253-1.3-2.059.378-2.059.378l-.3.282Z"
      transform="translate(-298.4 -603.186)"
    />
    <path
      class="g"
      d="M211.347,616.273s.948.945.732,1.167-3.752,3.141-4.629,2.207-5.148-5.622-3.486-6.025,2.1.538,2.1.538l2.194,3.754Z"
      transform="translate(-200.246 -575.543)"
    />
    <path
      class="g"
      d="M111.307,518.781l1.557.528-.025,1.124-1.647-.178Z"
      transform="translate(-103.044 -480.911)"
    />
    <path
      class="l"
      d="M86.459,541.026l-1.678.982-1.917-2.948,1.85,2.428Z"
      transform="translate(-76.793 -499.71)"
    />
    <circle
      class="e"
      cx="2.544"
      cy="2.544"
      r="2.544"
      transform="translate(1.175 30.207)"
    />
    <path
      class="i"
      d="M215.776,487.648l-1.781-2.605.755-.935,1.851,2.68Z"
      transform="translate(-198.314 -448.775)"
    />
    <path
      class="m"
      d="M203.324,494.817l-2.711-3.942.134-.162,2.7,3.951Z"
      transform="translate(-185.913 -454.9)"
    />
    <path
      class="m"
      d="M198.556,500.05l-2.711-3.942.134-.162,2.7,3.951Z"
      transform="translate(-181.494 -459.75)"
    />
    <path
      class="m"
      d="M194.494,503.9l-2.711-3.942.134-.162,2.7,3.951Z"
      transform="translate(-177.73 -463.32)"
    />
    <path
      class="e"
      d="M66.117,425.544H66.9a1.5,1.5,0,0,1,1.5,1.5H66.117Z"
      transform="translate(-61.272 -394.488)"
    />
    <path
      class="a"
      d="M361.986,505.492l-.143-.011c-.005.074-.009.149-.014.223l-.64-.021.672,1.259.754-1.211-.643-.021C361.977,505.637,361.981,505.564,361.986,505.492Z"
      transform="translate(-346.303 -475.389)"
    />
    <path
      class="a"
      d="M423.317,357.179l.114.087c.171-.223.349-.446.53-.663l-.11-.092C423.668,356.729,423.489,356.954,423.317,357.179Z"
      transform="translate(-403.878 -337.307)"
    />
    <path
      class="a"
      d="M438.272,339.91l.106.1c.19-.208.387-.414.586-.614l-.1-.1C438.662,339.493,438.463,339.7,438.272,339.91Z"
      transform="translate(-417.737 -321.347)"
    />
    <path
      class="a"
      d="M454.736,324.09l.1.105c.208-.191.422-.379.637-.56l-.092-.109C455.161,323.708,454.945,323.9,454.736,324.09Z"
      transform="translate(-432.995 -306.734)"
    />
    <path
      class="a"
      d="M409.991,375.767l.121.076c.15-.238.308-.476.469-.707l-.117-.082C410.3,375.287,410.142,375.527,409.991,375.767Z"
      transform="translate(-391.529 -354.495)"
    />
    <path
      class="a"
      d="M472.579,309.841l.087.113c.224-.172.453-.34.684-.5l-.082-.117C473.036,309.5,472.8,309.668,472.579,309.841Z"
      transform="translate(-449.53 -293.58)"
    />
    <path
      class="a"
      d="M398.406,395.532l.127.065c.129-.251.265-.5.405-.746l-.124-.071C398.673,395.027,398.536,395.28,398.406,395.532Z"
      transform="translate(-380.793 -372.779)"
    />
    <path
      class="a"
      d="M375.362,459.546l-.139-.036c-.071.274-.136.554-.195.832l.14.029C375.227,460.1,375.292,459.818,375.362,459.546Z"
      transform="translate(-359.128 -432.778)"
    />
    <path
      class="a"
      d="M491.665,297.276l.077.121c.237-.151.481-.3.725-.439l-.071-.124C492.149,296.975,491.9,297.124,491.665,297.276Z"
      transform="translate(-467.218 -281.992)"
    />
    <path
      class="a"
      d="M371.506,482.35l-.141-.023c-.046.279-.086.564-.12.846l.142.017C371.421,482.909,371.461,482.627,371.506,482.35Z"
      transform="translate(-355.622 -453.926)"
    />
    <path
      class="a"
      d="M388.661,416.33l.133.054c.106-.261.22-.523.337-.78l-.13-.06C388.882,415.8,388.768,416.067,388.661,416.33Z"
      transform="translate(-371.762 -392.025)"
    />
    <path
      class="a"
      d="M380.841,438l.137.042c.083-.27.172-.542.267-.807l-.135-.048C381.014,437.455,380.924,437.728,380.841,438Z"
      transform="translate(-364.515 -412.086)"
    />
    <path
      class="a"
      d="M623.67,262c.28-.01.566-.014.849-.011v-.143c-.284,0-.572,0-.855.011Z"
      transform="translate(-589.546 -249.557)"
    />
    <path
      class="a"
      d="M511.845,286.5l.066.127c.25-.129.506-.255.76-.373l-.06-.13C512.354,286.243,512.1,286.369,511.845,286.5Z"
      transform="translate(-485.919 -272.065)"
    />
    <path
      class="a"
      d="M669.93,264.6c.279.039.561.086.837.137l.026-.141c-.279-.052-.562-.1-.844-.139Z"
      transform="translate(-632.42 -251.98)"
    />
    <path
      class="a"
      d="M692.685,268.883c.274.064.55.135.822.211l.039-.138c-.273-.077-.552-.148-.828-.213Z"
      transform="translate(-653.508 -255.955)"
    />
    <path
      class="a"
      d="M714.969,275.192c.267.088.536.184.8.284l.051-.134c-.265-.1-.536-.2-.805-.286Z"
      transform="translate(-674.159 -261.806)"
    />
    <path
      class="a"
      d="M646.886,262.352c.282.015.566.036.846.063l.014-.142c-.282-.027-.569-.049-.852-.064Z"
      transform="translate(-611.065 -249.898)"
    />
    <path
      class="a"
      d="M600.423,262.746l.018.142c.279-.034.563-.063.844-.085l-.011-.143C600.99,262.683,600.7,262.712,600.423,262.746Z"
      transform="translate(-568.006 -250.317)"
    />
    <path
      class="a"
      d="M554.878,270.63l.042.137c.269-.083.543-.161.816-.233l-.036-.138C555.425,270.468,555.149,270.546,554.878,270.63Z"
      transform="translate(-525.799 -257.486)"
    />
    <path
      class="a"
      d="M532.961,277.6l.054.132c.26-.107.526-.209.79-.3l-.048-.135C533.491,277.388,533.223,277.491,532.961,277.6Z"
      transform="translate(-505.488 -263.879)"
    />
    <path
      class="a"
      d="M577.434,265.668l.03.14c.275-.059.555-.113.833-.159l-.024-.141C577.993,265.555,577.711,265.609,577.434,265.668Z"
      transform="translate(-546.702 -252.956)"
    />
    <path
      class="a"
      d="M737.015,277.911l-.8-1.181-.281.579-.2-.091-.057.131.2.088-.28.576Z"
      transform="translate(-693.27 -263.358)"
    />
  </svg>
